Coordinates
version=1
nRows=10
nColumns=63
inDegrees=yes

Units are S.I. units (second, meters, Newtons, ...)
If the header above contains a line with 'inDegrees', this indicates whether rotational values are in degrees (yes) or radians (no).

endheader
time	pelvis_tilt	pelvis_list	pelvis_rotation	pelvis_tx	pelvis_ty	pelvis_tz	hip_flexion_r	hip_adduction_r	hip_rotation_r	knee_angle_r	knee_angle_r_beta	ankle_angle_r	subtalar_angle_r	mtp_angle_r	hip_flexion_l	hip_adduction_l	hip_rotation_l	knee_angle_l	knee_angle_l_beta	ankle_angle_l	subtalar_angle_l	mtp_angle_l	L5_S1_Flex_Ext	L5_S1_Lat_Bending	L5_S1_axial_rotation	L4_L5_Flex_Ext	L4_L5_Lat_Bending	L4_L5_axial_rotation	L3_L4_Flex_Ext	L3_L4_Lat_Bending	L3_L4_axial_rotation	L2_L3_Flex_Ext	L2_L3_Lat_Bending	L2_L3_axial_rotation	L1_L2_Flex_Ext	L1_L2_Lat_Bending	L1_L2_axial_rotation	L1_T12_Flex_Ext	L1_T12_Lat_Bending	L1_T12_axial_rotation	Abs_r3	Abs_r2	Abs_r1	Abs_t1	Abs_t2	neck_flexion	neck_bending	neck_rotation	arm_flex_r	arm_add_r	arm_rot_r	elbow_flex_r	pro_sup_r	wrist_flex_r	wrist_dev_r	arm_flex_l	arm_add_l	arm_rot_l	elbow_flex_l	pro_sup_l	wrist_flex_l	wrist_dev_l
      2.23728814	      2.72034362	     -2.25599985	     88.10030175	      0.31391978	      1.03416241	      0.45518276	      2.16483216	     -4.00620287	     -5.89168909	      8.83453145	      0.15419166	     25.20064312	     12.34795497	      0.00000000	      2.96020650	      2.48024653	     -2.37360610	      9.15546308	      0.15979298	     23.75965753	     -8.63631939	      0.00000000	      0.05457722	     -0.16504259	      0.06069040	      0.10135536	     -0.21950664	      0.06448355	      0.08966492	     -0.40128454	      0.06448355	      0.06237631	     -0.40128454	      0.05310410	      0.05068041	     -0.33655484	      0.04931095	      0.03118543	     -0.25565097	      0.04551780	      0.38983966	     -1.86699474	      0.33754178	      0.00000000	      0.00000000	     23.00495562	      5.99960923	     -2.38858172	     -2.88249325	     -8.00654647	    -32.91819567	    123.37828723	     86.14132297	    -11.53769825	      8.61315731	     -2.88103073	    -14.39158648	    -31.00178176	    109.29708687	     16.75292418	    -10.98310302	    -19.30515100
      2.25423729	      2.78368389	     -2.30770991	     88.06931801	      0.31367337	      1.03413809	      0.45499147	      2.20116681	     -3.96157895	     -5.95009333	      8.81217168	      0.15380141	     25.14730478	     12.50862578	      0.00000000	      2.98687907	      2.43453181	     -2.35380975	      9.12827570	      0.15931847	     23.74086846	     -8.71528548	      0.00000000	      0.06562057	     -0.13786707	      0.14308342	      0.12186396	     -0.18336321	      0.15202613	      0.10780804	     -0.33521000	      0.15202613	      0.07499775	     -0.33521000	      0.12519799	      0.06093526	     -0.28113854	      0.11625528	      0.03749559	     -0.21355610	      0.10731256	      0.46872117	     -1.55957991	      0.79578705	      0.00000000	      0.00000000	     22.99094877	      4.99261014	     -2.03822605	     -3.21785218	     -8.19350868	    -32.25606300	    123.43804613	     85.63746737	    -10.34799025	      8.06250791	     -1.43746680	    -12.25872886	    -32.91099748	    107.35239611	     12.79842690	    -11.87314520	    -20.35354674
      2.27118644	      2.69100556	     -2.33853667	     88.15238654	      0.31348503	      1.03425291	      0.45476866	      2.19158813	     -4.06154346	     -5.98855798	      8.76236962	      0.15293220	     25.11556651	     12.45856839	      0.00000000	      3.00125398	      2.53898549	     -2.30755712	      9.10410463	      0.15889660	     23.66450762	     -8.65392885	      0.00000000	      0.08106657	     -0.13992420	      0.22246383	      0.15054874	     -0.18609919	      0.23636781	      0.13318428	     -0.34021170	      0.23636781	      0.09265099	     -0.34021170	      0.19465585	      0.07527842	     -0.28533343	      0.18075186	      0.04632144	     -0.21674259	      0.16684787	      0.57905044	     -1.58285054	      1.23727706	      0.00000000	      0.00000000	     22.78817875	      4.42096664	     -1.90059108	     -3.39308166	     -8.26260782	    -31.35017692	    123.09545602	     85.22265514	     -9.92663704	      8.29717018	      0.01273090	    -10.13107125	    -34.45531240	    105.33450773	     12.54313042	    -12.62185132	    -20.96578955
      2.28813559	      2.82281402	     -2.15630448	     87.85392724	      0.31348953	      1.03455763	      0.45433632	      2.01326677	     -3.93847617	     -5.74685314	      8.77011617	      0.15306740	     25.19253120	     12.49026053	      0.00000000	      2.72234116	      2.42764188	     -2.52585572	      9.02527428	      0.15752075	     23.68016859	     -8.79479186	      0.00000000	      0.07329554	     -0.11347491	      0.32555937	      0.13611714	     -0.15092164	      0.34590683	      0.12041724	     -0.27590291	      0.34590683	      0.08376947	     -0.27590291	      0.28486445	      0.06806223	     -0.23139804	      0.26451699	      0.04188107	     -0.17577264	      0.24416953	      0.52354268	     -1.28365092	      1.81066356	      0.00000000	      0.00000000	     22.28876006	      3.61625843	     -1.70385340	     -3.08965372	     -8.53960139	    -30.19076338	    122.24824750	     83.33965664	     -9.15520921	      9.35946971	      0.88995763	     -8.32723554	    -35.32589249	    103.89270664	     13.59528517	    -14.18820378	    -21.53558376
      2.30508475	      2.72022035	     -2.14369053	     87.41952605	      0.31426438	      1.03443010	      0.45395852	      2.03578412	     -3.99247847	     -5.04709086	      8.74108099	      0.15256064	     25.38336005	     12.18728702	      0.00000000	      2.58692179	      2.51343769	     -2.77967386	      8.85344396	      0.15452175	     23.64655551	     -8.87288479	      0.00000000	      0.08564682	     -0.13602149	      0.42205264	      0.15905471	     -0.18090858	      0.44843093	      0.14070916	     -0.33072265	      0.44843093	      0.09788575	     -0.33072265	      0.36929606	      0.07953164	     -0.27737502	      0.34291777	      0.04893859	     -0.21069729	      0.31653948	      0.61176668	     -1.53870229	      2.34733015	      0.00000000	      0.00000000	     22.18458497	      3.83971971	     -1.66168021	     -2.84431370	     -8.53911504	    -28.95355035	    121.41437657	     76.83170847	     -8.36261720	     12.01518533	      0.79837947	     -8.29803617	    -34.44572025	    102.97058669	     18.80180005	    -17.28330128	    -21.64921715
      2.32203390	      2.40705372	     -2.11142386	     87.19711230	      0.31520347	      1.03415723	      0.45327574	      1.96830957	     -4.25607156	     -4.65358124	      8.67704479	      0.15144300	     25.71875231	     11.97517543	      0.00000000	      2.46100577	      2.80325453	     -2.93997345	      8.74952732	      0.15270806	     23.62905282	     -8.88175671	      0.00000000	      0.10083448	     -0.19331478	      0.41958306	      0.18725972	     -0.25710866	      0.44580700	      0.16566097	     -0.47002556	      0.44580700	      0.11524373	     -0.47002556	      0.36713518	      0.09363490	     -0.39420750	      0.34091124	      0.05761682	     -0.29944460	      0.31468729	      0.72025064	     -2.18681546	      2.33359510	      0.00000000	      0.00000000	     22.01259163	      4.10251910	     -1.90662336	     -2.66694283	     -8.23839267	    -27.37139545	    120.26402392	     71.94709584	     -8.60343526	     13.90973703	     -0.03550900	     -9.88877192	    -32.09798425	    102.19837587	     22.01002278	    -17.76961815	    -21.91810179
      2.33898305	      2.54859514	     -2.05179305	     86.82967357	      0.31570078	      1.03355458	      0.45301214	      1.97425108	     -4.07588689	     -4.23943478	      8.77254818	      0.15310985	     25.95714921	     11.74853226	      0.00000000	      2.34956735	      2.64912307	     -3.20473923	      8.74441125	      0.15261877	     23.92311352	     -8.96439208	      0.00000000	      0.08968846	     -0.19467602	      0.46122248	      0.16656044	     -0.25891910	      0.49004889	      0.14734918	     -0.47333527	      0.49004889	      0.10250494	     -0.47333527	      0.40356967	      0.08328471	     -0.39698334	      0.37474327	      0.05124799	     -0.30155315	      0.34591686	      0.64063572	     -2.20221405	      2.56518107	      0.00000000	      0.00000000	     22.28880748	      4.43154471	     -2.28592731	     -2.74325973	     -8.62731652	    -25.95892284	    119.30724429	     61.53955008	     -8.77192033	     16.58955445	     -0.52341623	    -11.56280725	    -29.07092327	    101.06347567	     28.58178887	    -18.26886294	    -20.51369045
      2.35593220	      2.34996906	     -2.06933338	     86.52509323	      0.31662981	      1.03272335	      0.45244071	      2.00757890	     -4.24483640	     -4.08757039	      8.78096297	      0.15325672	     26.23039138	     11.88363241	      0.00000000	      2.32730689	      2.81826153	     -3.42836741	      8.75427505	      0.15279092	     24.16136902	     -8.99784734	      0.00000000	      0.09301935	     -0.24075385	      0.46700544	      0.17274624	     -0.32020263	      0.49619328	      0.15282149	     -0.58536892	      0.49619328	      0.10631182	     -0.58536892	      0.40862976	      0.08637777	     -0.49094526	      0.37944192	      0.05315126	     -0.37292772	      0.35025408	      0.66442793	     -2.72345576	      2.59734418	      0.00000000	      0.00000000	     22.64824079	      4.53633163	     -2.84239238	     -2.95607462	     -8.57299953	    -24.46768484	    118.05357134	     53.65609419	     -8.03668956	     18.56850671	     -0.93054203	    -13.63271044	    -26.25219981	     99.73375740	     37.18183855	    -18.40908491	    -16.51335552
      2.37288136	      2.18274026	     -2.08880836	     86.29498493	      0.31731092	      1.03165712	      0.45175111	      2.05502302	     -4.40741313	     -3.96968634	      8.88253992	      0.15502957	     26.72654484	     12.17918975	      0.00000000	      2.29838293	      2.97900811	     -3.65580432	      8.74648080	      0.15265489	     24.37473133	     -9.06396808	      0.00000000	      0.09352121	     -0.28241131	      0.49934281	      0.17367824	     -0.37560704	      0.53055174	      0.15364599	     -0.68665485	      0.53055174	      0.10688539	     -0.68665485	      0.43692496	      0.08684379	     -0.57589314	      0.40571603	      0.05343802	     -0.43745512	      0.37450711	      0.66801264	     -3.19469320	      2.77719492	      0.00000000	      0.00000000	     23.20762508	      4.91895671	     -3.61209850	     -3.23515783	     -8.56010899	    -23.10928254	    116.69425625	     48.87287521	     -6.90267263	     20.69558607	     -0.78598729	    -15.12831955	    -23.84811246	     98.11367594	     49.85962769	    -18.35655953	     -9.39009243
      2.38983051	      2.02898574	     -2.12914284	     86.16915736	      0.31786949	      1.03044043	      0.45112925	      2.08607746	     -4.54707847	     -4.05529642	      8.93224243	      0.15589704	     27.18806585	     12.34250020	      0.00000000	      2.32121930	      3.11819732	     -3.63462730	      8.80133807	      0.15361233	     24.76815154	     -9.09554385	      0.00000000	      0.09549938	     -0.31682798	      0.52106129	      0.17735190	     -0.42138121	      0.55362762	      0.15689593	     -0.77033555	      0.55362762	      0.10914624	     -0.77033555	      0.45592863	      0.08868072	     -0.64607562	      0.42336230	      0.05456835	     -0.49076654	      0.39079597	      0.68214252	     -3.58402148	      2.89798659	      0.00000000	      0.00000000	     23.74320707	      5.11663785	     -4.16971158	     -3.30111743	     -8.70381992	    -20.95565181	    114.60490170	     47.56483568	     -4.60845509	     20.68415996	     -0.25461240	    -15.79576767	    -21.92011492	     96.46366735	     64.36615098	    -17.28714639	     -1.13003608
